<svg width="24" height="24" viewBox="-7 -6 24 24" fill="none" xmlns="http://www.w3.org/2000/svg">
<!-- <svg width="10" height="12" viewBox="10 12" fill="none" xmlns="http://www.w3.org/2000/svg"> -->
<path d="M0.859375 12V0.6875H5.35938C7.85156 0.6875 9.11719 1.89062 9.10938 3.59375C9.11719 4.92188 8.24219 5.75781 7.07812 6.01562V6.125C8.35156 6.1875 9.55469 7.20312 9.5625 8.875C9.55469 10.6719 8.21094 12 5.65625 12H0.859375ZM3.20312 10.0625H5.1875C6.54688 10.0703 7.13281 9.50781 7.125 8.65625C7.13281 7.70312 6.40625 7.03125 5.25 7.03125H3.20312V10.0625ZM3.20312 5.42188H5.01562C6 5.42969 6.74219 4.875 6.73438 3.96875C6.74219 3.14844 6.13281 2.59375 5.0625 2.59375H3.20312V5.42188Z" fill="#A1A1AA"/>
</svg>
