<svg width="22" height="22" viewBox="0 0 22 22" fill="none" xmlns="http://www.w3.org/2000/svg">
<g id="editorButton">
<path id="Vector (Stroke)" fill-rule="evenodd" clip-rule="evenodd" d="M2.40625 6.1875C2.40625 5.61796 2.86796 5.15625 3.4375 5.15625C4.00704 5.15625 4.46875 5.61796 4.46875 6.1875C4.46875 6.75704 4.00704 7.21875 3.4375 7.21875C2.86796 7.21875 2.40625 6.75704 2.40625 6.1875ZM6.875 6.1875C6.875 5.8078 7.1828 5.5 7.5625 5.5H18.5625C18.9422 5.5 19.25 5.8078 19.25 6.1875C19.25 6.5672 18.9422 6.875 18.5625 6.875H7.5625C7.1828 6.875 6.875 6.5672 6.875 6.1875ZM2.40625 11C2.40625 10.4305 2.86796 9.96875 3.4375 9.96875C4.00704 9.96875 4.46875 10.4305 4.46875 11C4.46875 11.5695 4.00704 12.0312 3.4375 12.0312C2.86796 12.0312 2.40625 11.5695 2.40625 11ZM6.875 11C6.875 10.6203 7.1828 10.3125 7.5625 10.3125H18.5625C18.9422 10.3125 19.25 10.6203 19.25 11C19.25 11.3797 18.9422 11.6875 18.5625 11.6875H7.5625C7.1828 11.6875 6.875 11.3797 6.875 11ZM2.40625 15.8125C2.40625 15.243 2.86796 14.7812 3.4375 14.7812C4.00704 14.7812 4.46875 15.243 4.46875 15.8125C4.46875 16.382 4.00704 16.8438 3.4375 16.8438C2.86796 16.8438 2.40625 16.382 2.40625 15.8125ZM6.875 15.8125C6.875 15.4328 7.1828 15.125 7.5625 15.125H18.5625C18.9422 15.125 19.25 15.4328 19.25 15.8125C19.25 16.1922 18.9422 16.5 18.5625 16.5H7.5625C7.1828 16.5 6.875 16.1922 6.875 15.8125Z" fill="current"/>
</g>
</svg>
