<svg width="20" height="20" viewBox="0 0 20 20" fill="none" xmlns="http://www.w3.org/2000/svg">
<g clip-path="url(#clip0_449_1455)">
<path opacity="0.25" fill-rule="evenodd" clip-rule="evenodd" d="M9.99967 2.50001C5.85754 2.50001 2.49967 5.85787 2.49967 10C2.49967 14.1421 5.85754 17.5 9.99967 17.5C14.1418 17.5 17.4997 14.1421 17.4997 10C17.4997 5.85787 14.1418 2.50001 9.99967 2.50001ZM0.833008 10C0.833008 4.9374 4.93706 0.833344 9.99967 0.833344C15.0623 0.833344 19.1663 4.9374 19.1663 10C19.1663 15.0626 15.0623 19.1667 9.99967 19.1667C4.93706 19.1667 0.833008 15.0626 0.833008 10Z" fill="white"/>
<path fill-rule="evenodd" clip-rule="evenodd" d="M9.99967 2.50001C5.85754 2.50001 2.49967 5.85787 2.49967 10C2.49967 14.1421 5.85754 17.5 9.99967 17.5C14.1418 17.5 17.4997 14.1421 17.4997 10C17.4997 9.53977 17.8728 9.16668 18.333 9.16668C18.7932 9.16668 19.1663 9.53977 19.1663 10C19.1663 15.0626 15.0623 19.1667 9.99967 19.1667C4.93706 19.1667 0.833008 15.0626 0.833008 10C0.833008 4.9374 4.93706 0.833344 9.99967 0.833344C10.4599 0.833344 10.833 1.20644 10.833 1.66668C10.833 2.12691 10.4599 2.50001 9.99967 2.50001Z" fill="white"/>
</g>
<defs>
<clipPath id="clip0_449_1455">
<rect width="20" height="20" fill="white"/>
</clipPath>
</defs>
</svg>
