<svg width="30" height="30" viewBox="0 0 30 30" fill="none" xmlns="http://www.w3.org/2000/svg">
<path fill-rule="evenodd" clip-rule="evenodd" d="M13.8717 1.89326C14.3794 1.99481 14.7087 2.48871 14.6072 2.99642L13.3314 9.37506H18.9189L20.2682 2.6287C20.3697 2.12099 20.8636 1.79172 21.3714 1.89326C21.8791 1.99481 22.2083 2.48871 22.1068 2.99642L20.8311 9.37506H25.3125C25.8303 9.37506 26.25 9.79479 26.25 10.3126C26.25 10.8303 25.8303 11.2501 25.3125 11.2501H20.4561L18.9561 18.7501H23.4375C23.9553 18.7501 24.375 19.1698 24.375 19.6876C24.375 20.2053 23.9553 20.6251 23.4375 20.6251H18.5811L17.2318 27.3714C17.1303 27.8791 16.6364 28.2084 16.1286 28.1069C15.6209 28.0053 15.2917 27.5114 15.3932 27.0037L16.6689 20.6251H11.0814L9.73216 27.3714C9.63062 27.8791 9.13672 28.2084 8.62901 28.1069C8.12129 28.0053 7.79203 27.5114 7.89357 27.0037L9.1693 20.6251H4.6875C4.16973 20.6251 3.75 20.2053 3.75 19.6876C3.75 19.1698 4.16973 18.7501 4.6875 18.7501H9.5443L11.0443 11.2501H6.5625C6.04473 11.2501 5.625 10.8303 5.625 10.3126C5.625 9.79479 6.04473 9.37506 6.5625 9.37506H11.4193L12.7686 2.6287C12.8701 2.12099 13.364 1.79172 13.8717 1.89326ZM12.9564 11.2501L11.4564 18.7501H17.0439L18.5439 11.2501H12.9564Z" fill="#D4D4D8"/>
</svg>
